<?xml version="1.0" encoding="utf-8"?>
<!-- Svg Vector Icons : http://www.sfont.cn -->
<!DOCTYPE svg PUBLIC "-//W3C//DTD SVG 1.1//EN" "http://www.w3.org/Graphics/SVG/1.1/DTD/svg11.dtd">
<svg version="1.1" xmlns="http://www.w3.org/2000/svg" xmlns:xlink="http://www.w3.org/1999/xlink" x="0px" y="0px" viewBox="0 0 1000 1000" enable-background="new 0 0 1000 1000" xml:space="preserve">
<metadata> Svg Vector Icons : http://www.sfont.cn </metadata>
<g><path d="M765.6,80H574.7l-6.9-70H432.2L426,80H235.5c-69.7,0-127.2,47.7-135.6,116.7h801.4C892.7,127.7,835.3,80,765.6,80z M907.9,255H92.1c-0.7,5.6-1.2,5.4-1.2,11.2v615c0,75.5,69,108.9,144.5,108.9h530.1c75.5,0,143.4-33.4,143.4-108.9v-615C909,260.3,908.6,260.6,907.9,255z M308.3,860.5H203.5V371.3h104.7V860.5z M552.9,860.5H448.1V371.3h104.8V860.5z M797.5,860.5H692.7V371.3h104.7V860.5z"/></g>
</svg>